<svg width="109" height="98" viewBox="0 0 109 98" fill="none" xmlns="http://www.w3.org/2000/svg">
  <!-- Rotated Background Rectangle -->
  <rect x="0.463623" y="56.5601" width="97.3211" height="49.6211" rx="4" 
    transform="rotate(-35 0.463623 56.5601)" fill="black"/>
  
  <g clip-path="url(#clip0_2012_435)">
    <path d="M41.0745 70.2503L31.8111 76.7367L19.096 58.5778L14.7763 61.6025L30.0679 83.4412L43.6511 73.9301L41.0745 70.2503ZM53.0643 67.3389L37.7727 45.5002L33.4529 48.5249L48.7446 70.3637L53.0643 67.3389ZM62.241 28.3673L57.4893 31.6945L56.0626 47.2617L55.8706 47.3961L49.0258 37.6207L44.706 40.6454L59.9977 62.4841L64.3174 59.4594L59.4107 52.4518L59.8693 48.3396L72.6689 53.6116L77.8686 49.9708L61.0366 43.2305L62.241 28.3673ZM94.0055 33.4022L84.2301 40.2471L80.1299 34.3914L89.3134 27.9611L86.9944 24.6493L77.811 31.0796L73.89 25.4799L83.6655 18.6351L81.1897 15.0993L67.1265 24.9465L82.4181 46.7852L96.4813 36.938L94.0055 33.4022Z" fill="#50BB88"/>
  </g>
  
  <rect x="0.463623" y="56.5601" width="97.3211" height="49.6211" rx="4" 
    transform="rotate(-35 0.463623 56.5601)" stroke="#50BB88" stroke-width="3"/>
  
  <defs>
    <clipPath id="clip0_2012_435">
      <rect x="0.463623" y="56.5601" width="97.3211" height="49.6211" rx="4" 
        transform="rotate(-35 0.463623 56.5601)" fill="white"/>
    </clipPath>
  </defs>
</svg>
