<svg width="127" height="110" viewBox="0 0 127 110" fill="none" xmlns="http://www.w3.org/2000/svg">
  <!-- Rotated Black Background Rectangle -->
  <rect x="29.01" y="0.452454" width="119.147" height="49.6211" rx="4" 
    transform="rotate(35 29.01 0.452454)" fill="black"/>
  
  <g clip-path="url(#clip0_2012_270)">
    <path d="M17.907 40.2883L28.1351 25.6812L28.2631 25.7708L27.7465 47.1779L31.3303 49.6873L46.6219 27.8486L42.5901 25.0256L32.4181 39.5527L32.2741 39.4519L32.7667 18.1471L29.1669 15.6265L13.8753 37.4652L17.907 40.2883ZM44.0092 44.4977C39.6962 50.6574 40.6122 56.8065 46.4518 60.8955C52.2915 64.9845 58.4151 63.7645 62.7281 57.6049L64.6886 54.805C69.0128 48.6294 68.2137 42.3474 62.358 38.2473C56.5344 34.1695 50.3163 35.4903 45.9697 41.6979L44.0092 44.4977ZM50.3918 44.7466C53.3381 40.5389 56.9416 39.8194 59.8214 41.8358C62.7172 43.8635 63.2736 47.4957 60.3273 51.7035L58.3332 54.5513C55.3869 58.7591 51.8843 59.3346 48.9884 57.3069C46.1086 55.2905 45.4515 51.8022 48.3978 47.5945L50.3918 44.7466ZM77.4636 49.4442L62.172 71.2829L66.4917 74.3077L71.6225 66.9801L75.9903 70.0384C80.694 73.332 85.5648 72.1646 88.4774 68.0049C91.3453 63.9091 90.8868 58.8433 86.1991 55.5609L77.4636 49.4442ZM79.3588 55.8975L82.9586 58.4181C85.3424 60.0873 85.7917 62.4763 84.0777 64.9241C82.0052 67.884 79.5812 67.498 76.5733 65.3919L73.9815 63.5771L79.3588 55.8975ZM100.171 92.6211L90.396 85.7763L94.4962 79.9206L103.68 86.3509L105.999 83.0391L96.8151 76.6088L100.736 71.0091L110.511 77.854L112.987 74.3182L98.9241 64.471L83.6325 86.3098L97.6956 96.1569L100.171 92.6211Z" fill="#F94F69"/>
  </g>
  
  <rect x="29.01" y="0.452454" width="119.147" height="49.6211" rx="4" 
    transform="rotate(35 29.01 0.452454)" stroke="#F94F69" stroke-width="3"/>
  
  <defs>
    <clipPath id="clip0_2012_270">
      <rect x="29.01" y="0.452454" width="119.147" height="49.6211" rx="4" 
        transform="rotate(35 29.01 0.452454)" fill="white"/>
    </clipPath>
  </defs>
</svg>
