<svg width="22" height="22" viewBox="0 0 22 22" fill="none" xmlns="http://www.w3.org/2000/svg">
<path d="M10.7368 10.5085C9.26053 10.5085 7.99671 9.994 6.94539 8.96504C5.89408 7.93609 5.36842 6.69915 5.36842 5.25424C5.36842 3.80932 5.89408 2.57239 6.94539 1.54343C7.99671 0.514478 9.26053 0 10.7368 0C12.2132 0 13.477 0.514478 14.5283 1.54343C15.5796 2.57239 16.1053 3.80932 16.1053 5.25424C16.1053 6.69915 15.5796 7.93609 14.5283 8.96504C13.477 9.994 12.2132 10.5085 10.7368 10.5085ZM2.68421 21.0169C1.94605 21.0169 1.31437 20.7599 0.789158 20.2459C0.263052 19.731 0 19.1123 0 18.3898V17.339C0 16.5946 0.195948 15.9103 0.587842 15.2859C0.978842 14.6624 1.49868 14.1864 2.14737 13.8581C3.53421 13.1794 4.94342 12.6702 6.375 12.3304C7.80658 11.9915 9.26053 11.822 10.7368 11.822C12.2132 11.822 13.6671 11.9915 15.0987 12.3304C16.5303 12.6702 17.9395 13.1794 19.3263 13.8581C19.975 14.1864 20.4948 14.6624 20.8858 15.2859C21.2777 15.9103 21.4737 16.5946 21.4737 17.339V18.3898C21.4737 19.1123 21.2111 19.731 20.6859 20.2459C20.1598 20.7599 19.5276 21.0169 18.7895 21.0169H2.68421Z" fill="#000000FF"/>
</svg>
