<svg width="28" height="28" viewBox="0 0 28 28" fill="none" xmlns="http://www.w3.org/2000/svg">
<g clip-path="url(#clip0_9_752)">
<path d="M12.9423 17.792C11.881 17.9742 10.7983 17.9958 9.73051 17.8561C9.55365 17.8322 9.37708 17.8062 9.20085 17.778C8.76484 17.71 8.31882 17.7976 7.94085 18.0253L5.71951 19.3646C5.54844 19.4701 5.34809 19.5179 5.14785 19.5011C5.02674 19.492 4.90862 19.459 4.80028 19.4042C4.69194 19.3493 4.59549 19.2735 4.51648 19.1813C4.43746 19.0891 4.37743 18.9821 4.33983 18.8666C4.30223 18.7512 4.28779 18.6294 4.29735 18.5083L4.47235 16.4305C4.49415 16.1698 4.45971 15.9076 4.37135 15.6614C4.28298 15.4152 4.14276 15.1909 3.96018 15.0036C3.86321 14.9048 3.76943 14.8029 3.67901 14.698C2.56601 13.3913 1.90918 11.779 1.90918 10.036C1.90918 5.66797 6.03568 2.12714 11.1258 2.12714C15.8625 2.12714 19.7627 5.19197 20.2842 9.13648C24.2182 9.31498 27.3425 12.0706 27.3425 15.4435C27.3425 16.8353 26.8105 18.1221 25.9087 19.1651C25.8492 19.2351 25.7733 19.3168 25.6812 19.4101C25.5337 19.5586 25.4202 19.7373 25.3485 19.9339C25.2768 20.1305 25.2486 20.3403 25.2658 20.5488L25.407 22.209C25.4142 22.3063 25.402 22.4041 25.3712 22.4967C25.3405 22.5894 25.2917 22.675 25.2277 22.7487C25.1638 22.8224 25.0859 22.8828 24.9985 22.9263C24.9112 22.9698 24.8161 22.9957 24.7187 23.0023C24.5566 23.0156 24.3944 22.9772 24.2555 22.8926L22.4553 21.8228C22.1485 21.6412 21.7881 21.5715 21.4357 21.6256C21.2642 21.6525 21.1207 21.6723 21.0063 21.6875C20.6314 21.7353 20.2538 21.7594 19.8758 21.7598C16.7328 21.7598 14.0448 20.1171 12.9423 17.792Z" fill="#000000FF"/>
</g>
<defs>
<clipPath id="clip0_9_752">
<rect width="28" height="28" fill="white"/>
</clipPath>
</defs>
</svg>
